<?xml version="1.0" standalone="no"?>
<!DOCTYPE svg PUBLIC "-//W3C//DTD SVG 20010904//EN"
 "http://www.w3.org/TR/2001/REC-SVG-20010904/DTD/svg10.dtd">
<svg version="1.0" xmlns="http://www.w3.org/2000/svg"
 width="1000.000000pt" height="750.000000pt" viewBox="0 0 1000.000000 750.000000"
 preserveAspectRatio="xMidYMid meet">

<g transform="translate(0.000000,750.000000) scale(0.100000,-0.100000)"
fill="#000000" stroke="none">
<path d="M0 3750 l0 -3750 5000 0 5000 0 0 3750 0 3750 -5000 0 -5000 0 0
-3750z m1880 985 c151 -40 285 -120 396 -238 126 -132 201 -289 225 -471 23
-176 -20 -378 -111 -524 l-29 -47 184 -186 c198 -199 216 -226 216 -314 0
-118 -96 -215 -214 -215 -79 0 -128 35 -331 239 l-189 189 -64 -24 c-256 -96
-558 -54 -778 108 -122 90 -207 194 -270 331 -47 103 -65 176 -72 302 -23 422
271 788 695 865 70 13 268 4 342 -15z m2501 -629 c14 -3 30 -16 37 -28 17 -36
212 -632 212 -651 0 -21 -34 -39 -68 -35 -26 3 -30 13 -128 305 -55 167 -103
305 -106 308 -3 3 -46 -122 -97 -277 -50 -156 -97 -294 -104 -308 -17 -33 -66
-39 -91 -11 -18 19 -15 30 94 355 97 291 115 337 133 341 68 14 61 14 118 1z
m1633 4 l26 -10 0 -350 0 -350 -25 -6 c-14 -3 -36 -3 -50 0 l-25 6 0 351 0
350 23 9 c12 5 23 9 24 9 1 1 13 -3 27 -9z m404 -18 c16 -20 18 -653 2 -683
-12 -22 -68 -27 -88 -7 -9 9 -12 102 -12 355 l0 344 23 9 c27 11 58 3 75 -18z
m1003 18 c10 0 28 -9 39 -20 19 -19 20 -33 20 -348 0 -242 -3 -331 -12 -340
-7 -7 -26 -12 -43 -12 -17 0 -36 5 -43 12 -9 9 -12 79 -12 255 0 190 -3 243
-13 243 -8 0 -38 -87 -81 -232 -38 -128 -75 -243 -83 -255 -15 -26 -54 -31
-75 -10 -7 8 -46 123 -87 255 -48 155 -79 242 -88 242 -10 0 -13 -49 -13 -243
0 -176 -3 -246 -12 -255 -20 -20 -76 -15 -88 7 -6 13 -10 138 -10 340 0 308 1
322 20 341 23 23 114 28 141 7 25 -19 33 -39 104 -285 38 -127 69 -231 70
-230 2 2 33 111 69 242 37 132 72 246 79 254 16 20 69 42 85 37 8 -3 22 -5 33
-5z m501 -19 c9 -9 64 -162 123 -339 102 -309 106 -325 89 -343 -19 -22 -66
-25 -82 -6 -5 6 -54 146 -108 309 -53 164 -100 296 -103 293 -2 -3 -50 -141
-105 -308 -98 -292 -102 -302 -128 -305 -34 -4 -68 14 -68 36 0 22 210 653
222 669 20 25 132 21 160 -6z m-4572 -1 c52 -27 71 -57 77 -128 6 -63 -9 -92
-48 -92 -42 0 -59 18 -59 63 0 23 -7 53 -16 65 -14 20 -23 22 -119 22 -131 0
-135 -3 -135 -109 0 -46 5 -82 12 -89 8 -8 50 -12 123 -12 95 0 117 -3 155
-22 73 -38 85 -63 85 -181 0 -119 -11 -152 -62 -187 -33 -23 -47 -25 -164 -28
-110 -4 -133 -1 -173 16 -62 28 -86 69 -86 148 0 67 11 84 51 84 41 0 59 -24
59 -80 0 -72 21 -83 146 -78 118 4 124 9 124 118 0 113 -1 114 -162 120 -195
8 -218 29 -218 195 0 114 13 145 75 175 34 17 60 20 168 20 108 0 134 -3 167
-20z m620 -6 c7 -17 7 -32 0 -45 -10 -17 -23 -19 -150 -19 l-140 0 0 -270 0
-269 153 -3 152 -3 3 -28 c6 -54 -4 -57 -197 -57 -144 0 -181 3 -199 16 -22
15 -22 16 -22 340 0 205 4 332 10 345 10 18 23 19 196 19 l184 0 10 -26z
m1127 7 c61 -28 73 -58 73 -190 0 -124 -9 -152 -56 -182 l-33 -20 74 -123 c41
-67 75 -129 75 -137 0 -28 -40 -54 -76 -50 -6 0 -50 68 -99 151 l-89 149 -45
3 c-39 3 -47 7 -55 30 -16 45 5 58 88 58 105 0 111 7 111 120 0 118 -2 120
-142 120 l-103 0 0 -289 c0 -164 -4 -301 -10 -315 -8 -21 -16 -26 -43 -26 -18
0 -38 5 -45 12 -17 17 -17 679 0 696 8 8 61 12 173 12 136 0 166 -3 202 -19z
m633 -1 c46 -24 67 -58 75 -126 10 -80 -29 -124 -84 -94 -17 9 -21 21 -21 60
0 79 -18 90 -138 90 -147 0 -137 19 -137 -265 l0 -237 25 -20 c21 -17 36 -19
122 -16 57 2 102 8 109 15 6 6 14 36 17 65 5 63 15 78 51 78 48 0 56 -13 54
-86 -2 -80 -19 -109 -83 -141 -38 -20 -59 -23 -160 -23 -124 0 -175 14 -215
60 -19 21 -20 39 -23 291 -3 307 -1 317 71 350 63 28 281 28 337 -1z m2920 4
c10 -11 11 -23 4 -42 -9 -26 -12 -27 -97 -30 l-87 -3 0 -295 c0 -184 -4 -303
-10 -315 -12 -22 -68 -27 -88 -7 -9 9 -12 93 -12 315 l0 302 -92 3 -93 3 -3
28 c-7 58 -12 57 236 57 196 0 231 -2 242 -16z m489 -6 c5 -13 5 -32 1 -43 -7
-19 -18 -20 -149 -23 l-141 -3 0 -269 0 -269 153 -3 152 -3 3 -28 c6 -54 -4
-57 -197 -57 -144 0 -181 3 -199 16 -22 15 -22 16 -22 340 0 205 4 332 10 345
10 18 23 19 196 19 182 0 185 0 193 -22z m-5268 -259 c48 -25 44 -105 -7 -128
-35 -16 -48 -14 -78 10 -19 15 -26 30 -26 55 0 60 57 92 111 63z m2359 -9 c30
-30 27 -83 -6 -109 -15 -12 -34 -21 -44 -21 -10 0 -29 9 -44 21 -52 41 -23
129 44 129 17 0 39 -9 50 -20z m2811 9 c48 -25 44 -105 -7 -128 -35 -16 -48
-14 -78 10 -19 15 -26 30 -26 55 0 60 57 92 111 63z m-4671 -169 c41 -41 12
-120 -45 -120 -14 0 -34 9 -45 20 -41 41 -12 120 45 120 14 0 34 -9 45 -20z
m3517 -2 c31 -29 30 -71 -3 -97 -15 -12 -35 -21 -46 -21 -25 0 -68 44 -68 70
0 28 43 70 71 70 13 0 33 -10 46 -22z"/>
<path d="M1593 4419 c-181 -30 -333 -158 -392 -332 -60 -174 -19 -364 110
-501 98 -105 216 -156 365 -156 377 0 610 392 437 735 -62 121 -220 232 -363
255 -73 11 -84 11 -157 -1z"/>
</g>
</svg>
